<svg width="367" height="195" fill="none" xmlns="http://www.w3.org/2000/svg"><g clip-path="url(#a)"><path d="M213.393 72.868s-2.012-.501-2.618-.3c-.607.2.401.916.401.916-.361.244-.64.59-.802.995-.302.706 1.003.4 1.003.4a.699.699 0 0 0 0 .908c.402.406 2.212-1.61 2.212-1.61a4.91 4.91 0 0 0 2.518.707c1.209-.1 1.916-.406 2.723-1.614.413-.645.885-1.252 1.409-1.811l.803-.336-1.209-.707s-1.008-.907-2.016-.807a2.97 2.97 0 0 0-1.409.406s-.606-1.615-1.514-2.217c-.908-.602-3.726-1.41-4.63-1.915-.903-.507-.706.3-.405.807.301.506 1.208.907 1.614 1.108.406.2-2.116.301-1.715.803.402.502 1.916.707 1.916.707s-1.401.506-1.104.942c.297.437 1.51.402 1.51.402s-.402 1.008.2 1.008h.607s-.297 1.387.506 1.208Z" fill="#F7CC50" stroke="#263238" stroke-width=".436" stroke-linecap="round" stroke-linejoin="round"/><path d="M216.417 70.028s.803-1.615.402-2.618c-.402-1.004-4.128-3.626-4.028-2.618a2.44 2.44 0 0 0 1.108 1.614s-1.514-.506-1.514-.1v.401s1.715.402 2.518 1.109a8.195 8.195 0 0 1 1.514 2.212Z" fill="#263238" stroke="#263238" stroke-width=".436" stroke-linecap="round" stroke-linejoin="round"/><path d="M218.773 71.11a.301.301 0 1 1 0-.602.301.301 0 0 1 0 .602Z" fill="#263238"/><path d="M214.728 73.89c.179.61 1.139.872 2.143.567 1.003-.306 1.671-1.034 1.492-1.645-.179-.611-1.143-.873-2.147-.568-1.003.306-1.671 1.034-1.488 1.645Z" fill="#fff" stroke="#263238" stroke-width=".218" stroke-linecap="round" stroke-linejoin="round"/><path d="M313.576 47.033s2.012-.506 2.618-.306c.607.201-.401.917-.401.917.361.245.641.593.803.999.301.707-1.004.401-1.004.401a.7.7 0 0 1 0 .908c-.401.401-2.212-1.61-2.212-1.61a4.95 4.95 0 0 1-2.522.702c-1.209-.1-1.911-.401-2.719-1.61a12.523 12.523 0 0 0-1.409-1.81l-.807-.306 1.209-.703s1.007-.907 2.015-.807c.496.016.98.154 1.41.402 0 0 .606-1.61 1.509-2.213.904-.602 3.731-1.413 4.634-1.915.904-.502.707.301.406.807-.301.506-1.208.903-1.614 1.108-.406.206 2.116.301 1.715.803-.402.502-1.916.707-1.916.707s1.409.502 1.108.908c-.301.406-1.509.401-1.509.401s.401 1.008-.201 1.008h-.607s.297 1.41-.506 1.209Z" fill="#F7CC50" stroke="#263238" stroke-width=".436" stroke-linecap="round" stroke-linejoin="round"/><path d="M310.552 44.21s-.802-1.61-.401-2.618c.401-1.008 4.128-3.626 4.027-2.618a2.413 2.413 0 0 1-1.108 1.605s1.514-.501 1.514-.1v.406s-1.715.401-2.522 1.108c-.62.652-1.13 1.4-1.51 2.217Z" fill="#263238" stroke="#263238" stroke-width=".436" stroke-linecap="round" stroke-linejoin="round"/><path d="M308.497 44.995a.299.299 0 0 1-.301.301.302.302 0 0 1-.301-.3.303.303 0 0 1 .301-.302.3.3 0 0 1 .301.301Z" fill="#263238"/><path d="M312.237 48.076c-.179.61-1.143.872-2.143.567-.999-.306-1.671-1.034-1.492-1.645.179-.61 1.143-.873 2.147-.567 1.004.305 1.675 1.034 1.488 1.645Z" fill="#fff" stroke="#263238" stroke-width=".218" stroke-linecap="round" stroke-linejoin="round"/><path d="M318.982 122.044a31.82 31.82 0 0 1 11.201-10.075c7.217-3.744 10.298-7.44 6.545-7.222-4.542.271-14.835 3.879-19.513 16.581-2.02 5.476 1.746.72 1.746.72" fill="#F7CC50"/><path d="M318.982 122.044a31.82 31.82 0 0 1 11.201-10.075c7.217-3.744 10.298-7.44 6.545-7.222-4.542.271-14.835 3.879-19.513 16.581-2.02 5.476 1.746.72 1.746.72" stroke="#263238" stroke-width=".436" stroke-linecap="round" stroke-linejoin="round"/><path d="M319.218 120.385s3.609-7.217 10.428-10.69" stroke="#263238" stroke-width=".436" stroke-linecap="round" stroke-linejoin="round"/><path d="M314.645 126.42a28.806 28.806 0 0 0 .904-13.588c-1.37-7.217-.463-11.467 1.47-8.683 2.348 3.378 5.533 12.706-.873 23.126-2.766 4.494-1.496-.873-1.496-.873" fill="#F7CC50"/><path d="M314.645 126.42a28.806 28.806 0 0 0 .904-13.588c-1.37-7.217-.463-11.467 1.47-8.683 2.348 3.378 5.533 12.706-.873 23.126-2.766 4.494-1.496-.873-1.496-.873" stroke="#263238" stroke-width=".436" stroke-linecap="round" stroke-linejoin="round"/><path d="M315.684 125.325s3.098-6.593 1.789-13.378" stroke="#263238" stroke-width=".436" stroke-linecap="round" stroke-linejoin="round"/><path d="M318.69 118.858a28.789 28.789 0 0 0 .903-13.587c-1.37-7.217-.462-11.472 1.471-8.683 2.347 3.377 5.533 12.706-.873 23.126-2.766 4.494-1.497-.873-1.497-.873" fill="#F7CC50"/><path d="M318.69 118.858a28.789 28.789 0 0 0 .903-13.587c-1.37-7.217-.462-11.472 1.471-8.683 2.347 3.377 5.533 12.706-.873 23.126-2.766 4.494-1.497-.873-1.497-.873" stroke="#263238" stroke-width=".436" stroke-linecap="round" stroke-linejoin="round"/><path d="M319.218 120.385s3.622-9.219 2.286-16.004" stroke="#263238" stroke-width=".436" stroke-linecap="round" stroke-linejoin="round"/><path d="M228.085 114.155a31.848 31.848 0 0 0-11.197-10.076c-7.221-3.743-10.297-7.44-6.545-7.216 4.542.266 14.836 3.874 19.513 16.58 2.016 5.481-1.767.72-1.767.72" fill="#F7CC50"/><path d="M228.085 114.155a31.848 31.848 0 0 0-11.197-10.076c-7.221-3.743-10.297-7.44-6.545-7.216 4.542.266 14.836 3.874 19.513 16.58 2.016 5.481-1.767.72-1.767.72" stroke="#263238" stroke-width=".436" stroke-linecap="round" stroke-linejoin="round"/><path d="M227.844 112.501s-3.608-7.217-10.424-10.695" stroke="#263238" stroke-width=".436" stroke-linecap="round" stroke-linejoin="round"/><path d="M232.426 118.531a28.748 28.748 0 0 1-.912-13.583c1.37-7.221.463-11.471-1.474-8.688-2.348 3.382-5.529 12.711.872 23.126 2.767 4.495 1.497-.872 1.497-.872" fill="#F7CC50"/><path d="M232.426 118.531a28.748 28.748 0 0 1-.912-13.583c1.37-7.221.463-11.471-1.474-8.688-2.348 3.382-5.529 12.711.872 23.126 2.767 4.495 1.497-.872 1.497-.872" stroke="#263238" stroke-width=".436" stroke-linecap="round" stroke-linejoin="round"/><path d="M231.383 117.44s-3.111-6.597-1.776-13.382" stroke="#263238" stroke-width=".436" stroke-linecap="round" stroke-linejoin="round"/><path d="M228.381 110.969a28.738 28.738 0 0 1-.903-13.587c1.37-7.217.462-11.467-1.475-8.683-2.347 3.377-5.528 12.706.873 23.125 2.766 4.495 1.496-.872 1.496-.872" fill="#F7CC50"/><path d="M228.381 110.969a28.738 28.738 0 0 1-.903-13.587c1.37-7.217.462-11.467-1.475-8.683-2.347 3.377-5.528 12.706.873 23.125 2.766 4.495 1.496-.872 1.496-.872" stroke="#263238" stroke-width=".436" stroke-linecap="round" stroke-linejoin="round"/><path d="M227.844 112.501s-3.617-9.22-2.282-16.005" stroke="#263238" stroke-width=".436" stroke-linecap="round" stroke-linejoin="round"/><path d="M304.834 99.66c0-6.84-1.111-14.267-2.497-25.464-.524-4.032-1.497-6.953-4.019-8.863-2.085-1.56-4.993-2.384-9.012-2.571a132.329 132.329 0 0 0-18.787 0c-5.168.324-12.245.773-13.157 12.969-.636 8.588-1.835 11.921-2.571 21.682-1.148 8.526.262 18.362 5.755 24.654 6.416 7.377 16.963 9.536 26.525 7.864a21.09 21.09 0 0 0 7.49-2.722 22.543 22.543 0 0 0 8.738-11.596c1.81-5.018 1.448-10.56 1.535-15.953Zm-25.477-15.204a26.988 26.988 0 0 0-12.72 3.146c-2.01 1.086-4.257-1.173-4.094-3.483.187-2.746.362-4.743.774-7.552.861-5.667 3.47-7.14 8.55-7.49a97.925 97.925 0 0 1 15.916-.211c5.891.262 7.377 2.122 8.126 6.828a70.4 70.4 0 0 1 .487 8.463c.125 2.397-1.848 4.531-3.957 3.433a29.15 29.15 0 0 0-13.082-3.134Z" fill="#fff"/><path d="M280.93 130.992c-8.376 0-16.003-3.058-20.797-8.551-4.993-5.729-7.19-15.066-5.854-24.965.375-4.993.874-8.376 1.361-11.596.487-3.221.898-5.93 1.248-10.074.899-12.67 8.513-13.144 13.556-13.469a135.016 135.016 0 0 1 18.836 0c4.17.188 7.116 1.036 9.263 2.66 2.945 2.221 3.744 5.716 4.206 9.174.225 1.722.437 3.358.637 4.918 1.136 8.588 1.947 14.792 1.91 20.609v2.234c0 4.669 0 9.5-1.623 13.968-1.373 3.745-4.044 8.813-8.9 11.834a21.52 21.52 0 0 1-7.677 2.783 35.975 35.975 0 0 1-6.166.475Zm-25.715-33.529v.088c-1.248 9.649.812 18.724 5.642 24.279 5.73 6.565 15.729 9.524 26.089 7.701a20.574 20.574 0 0 0 7.328-2.633c4.631-2.871 7.19-7.765 8.525-11.36 1.585-4.306 1.573-9.05 1.56-13.643V99.66c0-5.754-.773-11.933-1.897-20.484-.212-1.56-.424-3.195-.649-4.918-.574-4.456-1.685-6.928-3.832-8.55-2.147-1.623-4.781-2.297-8.738-2.497a133.57 133.57 0 0 0-18.724 0c-5.268.337-11.834.749-12.707 12.545-.312 4.17-.749 7.065-1.249 10.136-.499 3.07-.973 6.578-1.348 11.571Zm38.372-9.112a2.914 2.914 0 0 1-1.361-.35 28.57 28.57 0 0 0-12.869-3.095h-.187a26.212 26.212 0 0 0-12.308 3.083 2.812 2.812 0 0 1-2.934-.175 4.258 4.258 0 0 1-1.86-3.744c.188-2.61.35-4.681.787-7.577.936-6.167 3.994-7.49 8.975-7.864l2.396-.163a88.462 88.462 0 0 1 13.569 0c6.366.3 7.839 2.56 8.576 7.228a40.12 40.12 0 0 1 .424 5.916c0 .837 0 1.698.075 2.597a4.28 4.28 0 0 1-1.76 3.745c-.461.272-.988.41-1.523.4ZM279.17 83.97h.199a29.337 29.337 0 0 1 13.282 3.208 1.845 1.845 0 0 0 1.947-.075 3.335 3.335 0 0 0 1.336-2.921c0-.924-.063-1.798-.075-2.634a38.812 38.812 0 0 0-.412-5.78c-.687-4.318-1.935-6.178-7.689-6.44a88.77 88.77 0 0 0-13.469 0l-2.397.162c-4.718.3-7.265 1.473-8.101 7.065-.437 2.858-.599 4.918-.787 7.49a3.297 3.297 0 0 0 1.436 2.896 1.91 1.91 0 0 0 1.985.137 27.098 27.098 0 0 1 12.745-3.108Z" fill="#000"/><path d="M262.655 82.472c.162-1.985.337-3.745.662-5.93.861-5.667 3.47-7.14 8.55-7.49a97.925 97.925 0 0 1 15.916-.211c5.892.262 7.377 2.122 8.126 6.828.303 2.091.444 4.203.424 6.316h.537l6.416-.088c-.299-2.371-.649-4.993-.998-7.714-.525-4.032-1.498-6.953-4.02-8.863-2.084-1.56-4.993-2.384-9.012-2.57a132.329 132.329 0 0 0-18.787 0c-5.168.324-12.245.773-13.156 12.969-.2 2.633-.45 4.78-.712 6.765l6.054-.012Z" fill="#F7CC50"/><path d="m256.064 83.021.075-.55c.325-2.346.549-4.43.724-6.727.924-12.608 8.538-13.082 13.581-13.407a135.03 135.03 0 0 1 18.837 0c4.169.188 7.115 1.036 9.262 2.66 2.946 2.221 3.744 5.716 4.206 9.174.225 1.722.437 3.345.637 4.893.125.961.25 1.91.374 2.821v.524h-.524l-6.428.1h-.999v-.948a38.644 38.644 0 0 0-.412-5.767c-.637-4.344-1.885-6.204-7.639-6.466a88.77 88.77 0 0 0-13.469 0l-2.397.162c-4.718.3-7.265 1.473-8.101 7.065-.35 2.284-.512 4.007-.662 5.88v.436h-.424l-6.067.075-.574.075Zm23.468-20.097c-2.672 0-5.218.112-9.038.35-5.268.337-11.833.748-12.707 12.544a106.7 106.7 0 0 1-.649 6.242h5.093c.137-1.735.312-3.383.624-5.517.936-6.167 3.994-7.49 8.975-7.865l2.396-.162a88.462 88.462 0 0 1 13.569 0c6.366.3 7.839 2.56 8.576 7.228.287 1.954.429 3.928.424 5.904h.062l5.905-.075c-.1-.749-.2-1.523-.312-2.31-.2-1.547-.412-3.17-.637-4.88-.574-4.444-1.685-6.928-3.832-8.55-2.147-1.623-4.781-2.297-8.738-2.497-4.281-.3-7.053-.412-9.711-.412ZM267.473 123.54a.13.13 0 0 1-.087 0 18.568 18.568 0 0 1-5.904-6.429.151.151 0 0 1-.044-.106.151.151 0 0 1 .044-.106.147.147 0 0 1 .048-.033.162.162 0 0 1 .115 0 .163.163 0 0 1 .049.033 18.242 18.242 0 0 0 5.804 6.341.16.16 0 0 1 0 .212.16.16 0 0 1-.025.088ZM259.959 114.477a.15.15 0 0 1-.15-.062 4.657 4.657 0 0 1-.811-1.873.134.134 0 0 1-.003-.063.143.143 0 0 1 .023-.059.171.171 0 0 1 .045-.044.153.153 0 0 1 .06-.021.147.147 0 0 1 .113.026.14.14 0 0 1 .061.099c.126.634.385 1.234.762 1.76.014.014.025.03.032.049a.139.139 0 0 1 0 .114.134.134 0 0 1-.032.049.161.161 0 0 1-.1.025Z" fill="#000"/><path d="M318.28 121.86s9.163-5 17.672-5.93c8.508-.929 13.47 3.055 13.43 4.774-.039 1.719-5.964 1.854-7.09 2.147-1.126.292-7.985-1.61-18.113.798-10.127 2.409-11.427 2.889-11.427 2.889l5.528-4.678Z" fill="#fff" stroke="#263238" stroke-width=".436" stroke-linecap="round" stroke-linejoin="round"/><path d="M322.102 121.738s9.534-4.193 18.117-4.363c8.583-.17 13.16 4.193 12.968 5.912-.192 1.719-6.109 1.335-7.248 1.523-1.139.188-7.819-2.287-18.116-.759-10.298 1.527-11.633 1.906-11.633 1.906l5.912-4.219Z" fill="#fff" stroke="#263238" stroke-width=".436" stroke-linecap="round" stroke-linejoin="round"/><path d="m200.216 118.217 13.243-3.587s9.376-7.448 20.673-6.619c11.297.829 21.516 5.236 24.828 7.723 3.312 2.487 7.448 4.966 8.29 5.52.842.554 12.139-2.483 18.209 0 6.069 2.483 10.751 7.466 10.751 7.466s25.657-7.724 32.001-8.828c6.344-1.104 13.793-.549 19.033 3.312 5.24 3.862 4.136 6.345 1.379 6.899-2.758.554-3.312-2.208-18.483 1.928-15.172 4.137-33.651 14.897-41.099 19.033-7.448 4.137-19.862 9.931-28.139 7.449-8.278-2.483-30.893-11.035-36.134-11.035-5.24 0-22.052 1.082-22.052 1.082l-2.5-30.343Z" fill="#fff" stroke="#263238" stroke-width=".436" stroke-linecap="round" stroke-linejoin="round"/><path d="m207.42 136.464 11.38 10.926-16.101 1.17 4.721-12.096Z" fill="#263238" stroke="#263238" stroke-width=".436" stroke-linecap="round" stroke-linejoin="round"/><path d="M296.21 128.719a9.766 9.766 0 0 1 1.554 3.711 9.765 9.765 0 0 1-.07 4.021c-.668 2.697-3.814 2.099-9.534.956-5.721-1.143-.384-1.907-13.732-2.099-13.348-.192-27.651-.571-28.414-.571" stroke="#263238" stroke-width=".436" stroke-linecap="round" stroke-linejoin="round"/><path d="M296.306 138.057a4.27 4.27 0 0 0-2.112-2.819s-3.172-1.645-5.166-1.645c-1.994 0-3.639 2.112-3.055 2.819M279.162 134.767v-2.347M277.989 130.19a9.544 9.544 0 0 0-.118 3.285" stroke="#263238" stroke-width=".436" stroke-linecap="round" stroke-linejoin="round"/><path d="M206.403 112.732h-17.79v48.551h17.79a1.958 1.958 0 0 0 1.959-1.959v-44.633a1.956 1.956 0 0 0-1.959-1.959Z" fill="#F7CC50" stroke="#263238" stroke-width=".436" stroke-linecap="round" stroke-linejoin="round"/><path d="M180.889 110H-12v55h192.889c2.416 0 4.734-.157 6.442-.437 1.709-.28 2.669-.66 2.669-1.055v-52.011c.003-.197-.23-.391-.686-.573-.456-.181-1.127-.346-1.973-.485a31.993 31.993 0 0 0-2.959-.325 52.263 52.263 0 0 0-3.493-.114Z" fill="#F7CC50" stroke="#263238" stroke-width=".436" stroke-linecap="round" stroke-linejoin="round"/><path d="M205.626 117.178h-14.682M191.14 122.942h14.927M206.591 133.415H196.38M194.548 133.415h-3.408" stroke="#263238" stroke-width=".436" stroke-linecap="round" stroke-linejoin="round"/></g><defs><clipPath id="a"><path fill="#fff" transform="matrix(-1 0 0 1 367 0)" d="M0 0h379v195H0z"/></clipPath></defs></svg>