<svg width="463" height="318" fill="none" xmlns="http://www.w3.org/2000/svg"><g clip-path="url(#a)"><path d="M137.462 47.148s-1.093-4.655-7.466-5.587c-6.373-.932-7.285 4.655-8.556 5.4-1.272.745-2.003-1.303-4.005-1.118-2.002.186-3.095 1.865-3.998 2.608-.903.742-2.55-1.49-3.824-1.118-1.273.373-2.366 2.235-2.366 2.235h36.95s-1.273-2.05-3.095-2.792c-1.821-.743-2.549.372-3.64.372ZM89.446 123.865s-2.676-11.155-18.302-13.39c-15.625-2.235-17.854 11.176-20.979 12.963-3.125 1.787-4.904-3.125-9.816-2.677-4.912.449-7.603 4.464-9.817 6.251-2.214 1.787-6.25-3.56-9.375-2.677s-5.802 5.353-5.802 5.353h90.607s-3.125-4.912-7.589-6.691c-4.463-1.78-6.25.868-8.927.868ZM315.509 81.644s-1.695-7.068-11.59-8.485c-9.895-1.417-11.318 7.069-13.297 8.2-1.979 1.133-3.111-1.978-6.222-1.694-3.111.285-4.805 2.848-6.222 3.959-1.417 1.11-3.958-2.264-5.937-1.695-1.979.57-3.673 3.389-3.673 3.389h57.405s-1.979-3.111-4.805-4.272c-2.826-1.16-3.958.598-5.659.598ZM231.691 78.963c9.035 0 16.359-7.324 16.359-16.358 0-9.035-7.324-16.359-16.359-16.359-9.035 0-16.359 7.324-16.359 16.359 0 9.034 7.324 16.358 16.359 16.358ZM231.691 35.148v6.656M231.691 84.509v6.656M251.495 43.349l-4.705 4.712M216.592 78.259l-4.712 4.705M259.696 63.16h-6.656M210.335 63.16h-6.656M251.495 82.964l-4.705-4.705M216.592 48.061l-4.712-4.712" stroke="#fff" stroke-width=".712" stroke-linecap="round" stroke-linejoin="round"/><path d="M250.956 118.882s3.281-.818 4.271-.491c.989.327-.655 1.495-.655 1.495a3.558 3.558 0 0 1 1.31 1.623c.491 1.153-1.638.655-1.638.655a1.136 1.136 0 0 1 0 1.481c-.654.662-3.609-2.627-3.609-2.627a8.003 8.003 0 0 1-4.107 1.153c-1.972-.164-3.125-.662-4.442-2.634a20.476 20.476 0 0 0-2.3-2.954l-1.309-.548 1.971-1.154s1.645-1.48 3.289-1.317c.81.025 1.601.253 2.3.663 0 0 .989-2.634 2.47-3.617 1.48-.982 6.079-2.299 7.553-3.125 1.473-.826 1.153.491.662 1.317s-1.972 1.481-2.634 1.808c-.662.328 3.452.491 2.798 1.31-.655.819-3.126 1.153-3.126 1.153s2.286.826 1.801 1.538c-.484.712-2.463.655-2.463.655s.655 1.644-.327 1.644h-.99s.484 2.264-.825 1.972Z" fill="#72C9EF" stroke="#263238" stroke-width=".712" stroke-linecap="round" stroke-linejoin="round"/><path d="M246.022 114.248s-1.31-2.634-.655-4.271c.655-1.638 6.735-5.916 6.571-4.271a3.972 3.972 0 0 1-1.808 2.633s2.47-.825 2.47-.163v.655s-2.798.655-4.108 1.808a13.399 13.399 0 0 0-2.47 3.609Z" fill="#263238" stroke="#263238" stroke-width=".712" stroke-linecap="round" stroke-linejoin="round"/><path d="M242.178 116.013a.491.491 0 1 0 0-.982.491.491 0 0 0 0 .982Z" fill="#263238"/><path d="M248.777 120.548c-.292.997-1.858 1.424-3.495.925-1.637-.498-2.727-1.687-2.435-2.683.292-.997 1.865-1.424 3.503-.926 1.637.499 2.726 1.687 2.427 2.684Z" fill="#fff" stroke="#263238" stroke-width=".356" stroke-linecap="round" stroke-linejoin="round"/><path d="M87.51 76.732s-3.282-.825-4.271-.498c-.99.328.655 1.495.655 1.495a3.56 3.56 0 0 0-1.31 1.63c-.491 1.153 1.637.655 1.637.655a1.139 1.139 0 0 0 0 1.48c.655.656 3.61-2.626 3.61-2.626a8.073 8.073 0 0 0 4.114 1.146c1.972-.164 3.118-.655 4.435-2.627a20.486 20.486 0 0 1 2.3-2.954l1.316-.498-1.972-1.146s-1.644-1.481-3.288-1.317a4.904 4.904 0 0 0-2.3.655s-.99-2.627-2.463-3.61c-1.473-.982-6.086-2.306-7.56-3.125-1.474-.818-1.153.492-.662 1.317.491.826 1.972 1.474 2.634 1.808.662.335-3.453.492-2.798 1.31.655.819 3.126 1.154 3.126 1.154s-2.3.818-1.809 1.48c.492.662 2.463.655 2.463.655s-.654 1.644.328 1.644h.99s-.485 2.3.825 1.972Z" fill="#72C9EF" stroke="#263238" stroke-width=".712" stroke-linecap="round" stroke-linejoin="round"/><path d="M92.443 72.127s1.31-2.627.655-4.271c-.655-1.645-6.734-5.916-6.57-4.272a3.943 3.943 0 0 0 1.808 2.62s-2.47-.819-2.47-.164v.662s2.797.655 4.114 1.808a13.473 13.473 0 0 1 2.463 3.617Z" fill="#263238" stroke="#263238" stroke-width=".712" stroke-linecap="round" stroke-linejoin="round"/><path d="M95.796 73.408a.491.491 0 1 0 .983 0 .491.491 0 0 0-.983 0Z" fill="#263238"/><path d="M89.696 78.434c.291.996 1.865 1.423 3.495.925 1.63-.498 2.726-1.687 2.434-2.684-.291-.996-1.865-1.423-3.502-.925-1.637.498-2.734 1.687-2.427 2.684Z" fill="#fff" stroke="#263238" stroke-width=".356" stroke-linecap="round" stroke-linejoin="round"/><path d="M78.69 199.11a51.91 51.91 0 0 0-18.274-16.437c-11.774-6.108-16.8-12.138-10.678-11.782 7.41.442 24.204 6.329 31.835 27.051 3.296 8.934-2.847 1.175-2.847 1.175" fill="#72C9EF"/><path d="M78.69 199.11a51.91 51.91 0 0 0-18.274-16.437c-11.774-6.108-16.8-12.138-10.678-11.782 7.41.442 24.204 6.329 31.835 27.051 3.296 8.934-2.847 1.175-2.847 1.175" stroke="#263238" stroke-width=".712" stroke-linecap="round" stroke-linejoin="round"/><path d="M78.306 196.405s-5.888-11.775-17.014-17.441" stroke="#263238" stroke-width=".712" stroke-linecap="round" stroke-linejoin="round"/><path d="M85.766 206.25a46.985 46.985 0 0 1-1.474-22.168c2.236-11.774.755-18.708-2.399-14.166-3.83 5.51-9.026 20.73 1.424 37.729 4.513 7.332 2.442-1.424 2.442-1.424" fill="#72C9EF"/><path d="M85.766 206.25a46.985 46.985 0 0 1-1.474-22.168c2.236-11.774.755-18.708-2.399-14.166-3.83 5.51-9.026 20.73 1.424 37.729 4.513 7.332 2.442-1.424 2.442-1.424" stroke="#263238" stroke-width=".712" stroke-linecap="round" stroke-linejoin="round"/><path d="M84.072 204.463s-5.054-10.756-2.919-21.826" stroke="#263238" stroke-width=".712" stroke-linecap="round" stroke-linejoin="round"/><path d="M79.167 193.913a46.981 46.981 0 0 1-1.474-22.167c2.236-11.775.755-18.715-2.398-14.167-3.83 5.51-9.027 20.73 1.423 37.729 4.513 7.333 2.442-1.423 2.442-1.423" fill="#72C9EF"/><path d="M79.167 193.913a46.981 46.981 0 0 1-1.474-22.167c2.236-11.775.755-18.715-2.398-14.167-3.83 5.51-9.027 20.73 1.423 37.729 4.513 7.333 2.442-1.423 2.442-1.423" stroke="#263238" stroke-width=".712" stroke-linecap="round" stroke-linejoin="round"/><path d="M78.306 196.405s-5.909-15.042-3.73-26.112" stroke="#263238" stroke-width=".712" stroke-linecap="round" stroke-linejoin="round"/><path d="M226.987 186.239a51.971 51.971 0 0 1 18.266-16.437c11.782-6.108 16.8-12.137 10.678-11.774-7.41.434-24.203 6.321-31.835 27.051-3.288 8.941 2.884 1.174 2.884 1.174" fill="#72C9EF"/><path d="M226.987 186.239a51.971 51.971 0 0 1 18.266-16.437c11.782-6.108 16.8-12.137 10.678-11.774-7.41.434-24.203 6.321-31.835 27.051-3.288 8.941 2.884 1.174 2.884 1.174" stroke="#263238" stroke-width=".712" stroke-linecap="round" stroke-linejoin="round"/><path d="M227.378 183.541s5.888-11.774 17.007-17.447" stroke="#263238" stroke-width=".712" stroke-linecap="round" stroke-linejoin="round"/><path d="M219.904 193.379a46.88 46.88 0 0 0 1.488-22.16c-2.236-11.782-.755-18.715 2.406-14.174 3.83 5.517 9.019 20.737-1.424 37.73-4.513 7.332-2.442-1.424-2.442-1.424" fill="#72C9EF"/><path d="M219.904 193.379a46.88 46.88 0 0 0 1.488-22.16c-2.236-11.782-.755-18.715 2.406-14.174 3.83 5.517 9.019 20.737-1.424 37.73-4.513 7.332-2.442-1.424-2.442-1.424" stroke="#263238" stroke-width=".712" stroke-linecap="round" stroke-linejoin="round"/><path d="M221.605 191.6s5.076-10.764 2.898-21.834" stroke="#263238" stroke-width=".712" stroke-linecap="round" stroke-linejoin="round"/><path d="M226.503 181.043a46.899 46.899 0 0 0 1.473-22.168c-2.235-11.774-.754-18.708 2.406-14.166 3.83 5.51 9.02 20.729-1.423 37.729-4.514 7.332-2.442-1.424-2.442-1.424" fill="#72C9EF"/><path d="M226.503 181.043a46.899 46.899 0 0 0 1.473-22.168c-2.235-11.774-.754-18.708 2.406-14.166 3.83 5.51 9.02 20.729-1.423 37.729-4.514 7.332-2.442-1.424-2.442-1.424" stroke="#263238" stroke-width=".712" stroke-linecap="round" stroke-linejoin="round"/><path d="M227.378 183.541s5.902-15.041 3.724-26.111" stroke="#263238" stroke-width=".712" stroke-linecap="round" stroke-linejoin="round"/><path d="M229.948 149.4h-67.67l-37.857-60.196h67.67l37.857 60.196Z" fill="#263238" stroke="#263238" stroke-width=".712" stroke-linecap="round" stroke-linejoin="round"/><path d="M152.867 147.336H83.51v61.263h69.357v-61.263Z" fill="#C7C7C7" stroke="#263238" stroke-width=".712" stroke-linecap="round" stroke-linejoin="round"/><path d="M222.224 208.599h-69.357v-61.263l35.252-56.067 34.105 56.067v61.263Z" fill="#fff" stroke="#263238" stroke-width=".712" stroke-linecap="round" stroke-linejoin="round"/><path d="M167.887 158.313h-6.933v20.808h6.933v-20.808Z" fill="#C7C7C7" stroke="#263238" stroke-width=".712" stroke-linecap="round" stroke-linejoin="round"/><path d="M174.821 158.313h-6.934v20.808h6.934v-20.808Z" fill="#263238" stroke="#263238" stroke-width=".712" stroke-linecap="round" stroke-linejoin="round"/><path d="M181.762 158.313h-6.934v20.808h6.934v-20.808Z" fill="#C7C7C7" stroke="#263238" stroke-width=".712" stroke-linecap="round" stroke-linejoin="round"/><path d="M136.102 158.313h-5.78v20.808h5.78v-20.808Z" fill="#919191" stroke="#263238" stroke-width=".712" stroke-linecap="round" stroke-linejoin="round"/><path d="M141.883 158.313h-5.78v20.808h5.78v-20.808Z" fill="#263238" stroke="#263238" stroke-width=".712" stroke-linecap="round" stroke-linejoin="round"/><path d="M147.663 158.313h-5.78v20.808h5.78v-20.808ZM93.333 158.313h-5.78v20.808h5.78v-20.808Z" fill="#919191" stroke="#263238" stroke-width=".712" stroke-linecap="round" stroke-linejoin="round"/><path d="M99.114 158.313h-5.78v20.808h5.78v-20.808Z" fill="#263238" stroke="#263238" stroke-width=".712" stroke-linecap="round" stroke-linejoin="round"/><path d="M104.894 158.313h-5.78v20.808h5.78v-20.808Z" fill="#919191" stroke="#263238" stroke-width=".712" stroke-linecap="round" stroke-linejoin="round"/><path d="M203.146 158.313h-6.933v20.808h6.933v-20.808Z" fill="#C7C7C7" stroke="#263238" stroke-width=".712" stroke-linecap="round" stroke-linejoin="round"/><path d="M210.08 158.313h-6.934v20.808h6.934v-20.808Z" fill="#263238" stroke="#263238" stroke-width=".712" stroke-linecap="round" stroke-linejoin="round"/><path d="M217.013 158.313h-6.933v20.808h6.933v-20.808ZM186.966 124.214h-4.628v12.714h4.628v-12.714Z" fill="#C7C7C7" stroke="#263238" stroke-width=".712" stroke-linecap="round" stroke-linejoin="round"/><path d="M191.593 124.214h-4.627v12.714h4.627v-12.714Z" fill="#263238" stroke="#263238" stroke-width=".712" stroke-linecap="round" stroke-linejoin="round"/><path d="M196.213 124.214h-4.628v12.714h4.628v-12.714Z" fill="#C7C7C7" stroke="#263238" stroke-width=".712" stroke-linecap="round" stroke-linejoin="round"/><path d="M79.644 149.4h74.476l37.857-60.196h-74.476L79.644 149.4Z" fill="#72C9EF" stroke="#263238" stroke-width=".712" stroke-linecap="round" stroke-linejoin="round"/><path d="M137.79 116.391h-29.408v19.462h29.408v-19.462Z" fill="#C7C7C7" stroke="#263238" stroke-width=".712" stroke-linecap="round" stroke-linejoin="round"/><path d="m137.797 116.391 20.324-13.953-20.324 33.415v-19.462Z" fill="#fff" stroke="#263238" stroke-width=".712" stroke-linecap="round" stroke-linejoin="round"/><path d="M106.026 117.053h30.802l21.292-14.615h-30.802l-21.292 14.615Z" fill="#72C9EF" stroke="#263238" stroke-width=".712" stroke-linecap="round" stroke-linejoin="round"/><path d="M120.213 120.527h-4.627v12.714h4.627v-12.714Z" fill="#919191" stroke="#263238" stroke-width=".712" stroke-linecap="round" stroke-linejoin="round"/><path d="M124.833 120.527h-4.627v12.714h4.627v-12.714Z" fill="#263238" stroke="#263238" stroke-width=".712" stroke-linecap="round" stroke-linejoin="round"/><path d="M129.461 120.527h-4.628v12.714h4.628v-12.714Z" fill="#919191" stroke="#263238" stroke-width=".712" stroke-linecap="round" stroke-linejoin="round"/><path d="M174.052 80.071h-2.591v18.886l2.591-4.172V80.071Z" fill="#fff" stroke="#263238" stroke-width=".712" stroke-linecap="round" stroke-linejoin="round"/><path d="M171.582 80.071h-7.645v18.886h7.645V80.07Z" fill="#C7C7C7" stroke="#263238" stroke-width=".712" stroke-linecap="round" stroke-linejoin="round"/><path d="M127.09 161.815h-17.804v46.784h17.804v-46.784Z" fill="#263238" stroke="#263238" stroke-width=".712" stroke-linecap="round" stroke-linejoin="round"/><path d="M126.144 185.143a1.58 1.58 0 0 0-.978-1.449 1.574 1.574 0 1 0 .978 1.449ZM79.836 198.811s-14.95-8.158-28.83-9.674c-13.882-1.517-21.976 4.983-21.912 7.787.064 2.805 9.731 3.026 11.568 3.503 1.837.477 13.027-2.627 29.55 1.302 16.522 3.93 18.644 4.713 18.644 4.713l-9.02-7.631Z" fill="#fff" stroke="#263238" stroke-width=".712" stroke-linecap="round" stroke-linejoin="round"/><path d="M73.6 198.611s-15.554-6.841-29.557-7.118c-14.002-.278-21.47 6.841-21.156 9.645.313 2.805 9.966 2.179 11.824 2.485 1.858.306 12.757-3.73 29.557-1.239 16.8 2.492 18.978 3.111 18.978 3.111l-9.646-6.884Z" fill="#fff" stroke="#263238" stroke-width=".712" stroke-linecap="round" stroke-linejoin="round"/><path d="m272.454 192.867-21.605-5.852s-15.298-12.152-33.729-10.799c-18.43 1.353-35.102 8.542-40.505 12.6-5.403 4.058-12.152 8.101-13.525 9.005-1.374.904-19.805-4.05-29.707 0-9.902 4.051-17.54 12.18-17.54 12.18s-41.858-12.6-52.209-14.401c-10.35-1.801-22.502-.897-31.052 5.403s-6.748 10.351-2.25 11.255c4.5.904 5.404-3.602 30.156 3.146 24.751 6.749 54.899 24.304 67.051 31.052 12.151 6.749 32.404 16.202 45.908 12.152 13.504-4.051 50.401-18.003 58.95-18.003 8.55 0 35.978 1.765 35.978 1.765l4.079-49.503Z" fill="#fff" stroke="#263238" stroke-width=".712" stroke-linecap="round" stroke-linejoin="round"/><path d="m260.701 222.637-18.566 17.825 26.268 1.908-7.702-19.733Z" fill="#263238" stroke="#263238" stroke-width=".712" stroke-linecap="round" stroke-linejoin="round"/><path d="M115.843 210.001a15.946 15.946 0 0 0-2.421 12.615c1.089 4.399 6.222 3.424 15.555 1.559 9.332-1.865.626-3.111 22.402-3.424 21.776-.314 45.111-.933 46.357-.933" stroke="#263238" stroke-width=".712" stroke-linecap="round" stroke-linejoin="round"/><path d="M115.686 225.235a6.948 6.948 0 0 1 3.445-4.598s5.176-2.684 8.429-2.684 5.937 3.445 4.983 4.599M143.655 219.868v-3.83M145.57 212.4c.374 1.763.439 3.576.193 5.361" stroke="#263238" stroke-width=".712" stroke-linecap="round" stroke-linejoin="round"/><path d="M262.36 183.918h29.023v79.21H262.36a3.196 3.196 0 0 1-3.196-3.196v-72.817c0-.848.336-1.661.936-2.26a3.193 3.193 0 0 1 2.26-.937Z" fill="#72C9EF" stroke="#263238" stroke-width=".712" stroke-linecap="round" stroke-linejoin="round"/><path d="M299.297 180.247H511v89.222H299.297c-2.653 0-5.196-.255-7.072-.709-1.875-.454-2.929-1.07-2.929-1.712v-84.373c-.003-.319.252-.634.753-.929.501-.294 1.237-.562 2.166-.788.929-.225 2.033-.404 3.248-.526a38.765 38.765 0 0 1 3.834-.185Z" fill="#72C9EF" stroke="#263238" stroke-width=".712" stroke-linecap="round" stroke-linejoin="round"/><path d="M263.627 191.172h23.954M287.261 200.576h-24.353M262.053 217.661h16.658M281.701 217.661h5.56" stroke="#263238" stroke-width=".712" stroke-linecap="round" stroke-linejoin="round"/><path fill-rule="evenodd" clip-rule="evenodd" d="m168.531 148.797.012-3.47 2.339.008-.002.418-.002.421-1.471-.006-.002.545 1.471.006-.001.418-.001.42-1.471-.006-.005 1.25-.434-.002-.433-.002ZM171.333 145.337l.434.001.434.001-.013 3.472-.433-.002-.434-.002.012-3.47ZM173.545 146.183l-.886-.004.002-.418.002-.42 2.637.01-.001.418-.002.42-.885-.003-.009 2.632-.434-.002-.434-.001.01-2.632ZM176.608 148.826l-.436-.001-.437-.002.013-3.471.65.003.65.002.796 2.153.007-2.15.436.001.438.002-.013 3.471-.547-.002-.545-.002-1.003-2.422-.009 2.418ZM179.226 148.836l.013-3.471 2.408.009-.001.418-.002.42-1.541-.006-.002.464 1.541.005-.001.418-.002.42-1.54-.005-.002.493 1.541.005-.002.418-.002.42-2.408-.008ZM184.299 146.532a1.483 1.483 0 0 0-.45-.255 1.609 1.609 0 0 0-.529-.082.768.768 0 0 0-.358.065c-.082.043-.123.106-.124.187 0 .062.04.116.12.162.079.044.222.091.428.139.365.089.629.216.791.379.161.164.241.385.239.663-.001.344-.114.621-.338.83-.224.209-.519.313-.885.311-.244 0-.457-.03-.637-.088a1.374 1.374 0 0 1-.487-.274l.003-.855c.168.143.334.25.502.322.167.072.334.108.502.109.161.001.283-.029.368-.089a.303.303 0 0 0 .129-.263c0-.071-.04-.128-.12-.173-.078-.044-.232-.093-.462-.149-.368-.089-.632-.219-.795-.392-.162-.173-.242-.41-.241-.71a.979.979 0 0 1 .358-.784c.237-.198.549-.296.935-.295.211.001.402.029.573.086.17.055.331.141.481.258l-.003.898ZM187.031 146.542a1.462 1.462 0 0 0-.979-.338.779.779 0 0 0-.357.065c-.082.044-.123.106-.124.188 0 .062.039.116.12.161.079.044.222.092.427.14.365.089.63.216.792.379.16.164.241.384.239.663-.001.344-.114.621-.338.83-.224.208-.519.312-.885.311a2.115 2.115 0 0 1-.637-.089 1.4 1.4 0 0 1-.488-.273l.004-.856c.167.143.334.251.501.323.167.072.335.108.503.109.161 0 .283-.029.368-.089a.305.305 0 0 0 .128-.263c0-.071-.039-.128-.119-.173a2.098 2.098 0 0 0-.463-.149c-.367-.089-.632-.22-.795-.393-.161-.172-.242-.409-.241-.709a.974.974 0 0 1 .357-.784c.237-.198.549-.296.936-.295.211.001.402.029.572.085.171.056.331.142.482.259l-.003.898ZM192.837 145.414l.433.001.434.002-.005 1.284 1.078.004.005-1.284.433.002.434.001-.012 3.471-.435-.002-.433-.001.005-1.349-1.078-.004-.005 1.349-.434-.002-.433-.002.013-3.47ZM198.211 147.946c.121-.162.181-.397.183-.703.001-.34-.055-.59-.168-.75-.113-.16-.289-.24-.53-.241a.599.599 0 0 0-.52.253c-.121.17-.182.414-.183.732-.001.307.058.541.178.705.119.163.292.244.518.246.227 0 .401-.081.522-.242Zm-1.697.566c-.26-.314-.389-.782-.388-1.406.003-.588.136-1.028.398-1.32.261-.293.653-.438 1.176-.436.555.002.954.141 1.199.417.244.276.365.723.363 1.339v.011c0 .624-.133 1.092-.395 1.404-.263.311-.657.466-1.18.463-.524-.002-.914-.159-1.173-.472ZM202.51 147.611c0 .463-.116.811-.349 1.042-.233.231-.581.345-1.044.343-.464-.002-.81-.119-1.04-.351-.231-.232-.345-.581-.345-1.044l.008-2.162.434.001.433.001-.007 2.111c-.001.184.043.325.131.423.088.098.217.147.385.148.168.001.297-.048.386-.144.089-.098.134-.238.135-.423l.007-2.11.436.001.437.002-.007 2.162ZM205.284 146.608a1.43 1.43 0 0 0-.45-.255 1.63 1.63 0 0 0-.529-.083.773.773 0 0 0-.357.065c-.082.044-.124.106-.124.188 0 .062.039.116.12.161.079.044.222.091.428.14.365.089.629.215.791.379.161.164.24.384.239.662-.001.345-.114.622-.338.83-.224.209-.519.313-.885.312a2.115 2.115 0 0 1-.637-.089 1.4 1.4 0 0 1-.488-.273l.003-.856c.168.143.335.251.502.323.167.072.335.108.503.109.16 0 .283-.029.368-.089a.306.306 0 0 0 .128-.263c0-.071-.04-.128-.119-.173a2.098 2.098 0 0 0-.463-.149c-.367-.089-.632-.22-.795-.393-.161-.173-.242-.409-.241-.709a.977.977 0 0 1 .357-.785c.237-.197.549-.295.936-.294.211.001.402.029.572.085.171.055.331.142.482.259l-.003.898ZM205.764 148.932l.012-3.47 2.409.009-.002.418-.001.42-1.541-.006-.002.463 1.541.006-.002.418-.001.42-1.541-.005-.002.492 1.541.005-.001.418-.002.421-2.408-.009ZM188.091 144.631l1.837-.888 1.831.901-3.668-.013ZM191.736 149.414l-1.837.887-1.83-.9 3.667.013ZM189.084 145.684c.002-.06.058-.108.127-.108l1.522.005c.069 0 .124.049.125.109l-1.774-.006Zm-.976-.824-.007 2.028 1.632.006.003-.763-.759-.002c-.092 0-.166-.056-.166-.123l.001-.121c0-.067.075-.122.166-.121l.105.001v-.002l1.776.006v.002l.105.001c.091 0 .165.056.165.122v.122c0 .067-.075.122-.167.121l-.759-.003-.002.763 1.531.005.007-2.028-3.631-.014Zm2.615 3.713-1.523-.006c-.068 0-.125-.05-.126-.11l1.776.007c-.002.06-.058.109-.127.109Zm-.526-.556.759.003c.091 0 .166.055.166.122l-.001.122c0 .067-.075.121-.166.121l-.105-.001-1.776-.006-.105-.001c-.091 0-.166-.055-.165-.123l.001-.122c0-.066.075-.121.166-.12l.759.002.003-.884-1.632-.006-.007 2.028 3.63.014.008-2.028-1.531-.006-.004.885Z" fill="#263238"/></g><defs><clipPath id="a"><path fill="#fff" d="M0 0h511v318.136H0z"/></clipPath></defs></svg>